<svg width="141" height="100" viewBox="0 0 141 100" fill="none" xmlns="http://www.w3.org/2000/svg">
<mask id="mask0_200_1090" style="mask-type:luminance" maskUnits="userSpaceOnUse" x="0" y="0" width="141" height="100">
<path d="M0 99.9785H140.986V-3.20146e-05H0V99.9785Z" fill="white"/>
</mask>
<g mask="url(#mask0_200_1090)">
<path d="M0 69.9785C0 86.5471 13.4315 99.9785 30 99.9785H110.984C127.552 99.9785 140.984 86.5471 140.984 69.9785V30C140.984 13.4314 127.552 -3.05176e-05 110.984 -3.05176e-05H30C13.4315 -3.05176e-05 0 13.4314 0 30V69.9785Z" fill="white"/>
</g>
<path d="M34.1062 57.8231L37.6106 39.0733H37.7234L41.2411 57.8231H34.1062ZM33.3297 27.724L23.374 72.2389H31.3916L32.8385 64.739H42.6282L44.0751 72.2389H52.4179L42.4623 27.724H33.3297ZM76.2849 64.7257H68.0018V27.7173H59.659V65.2832L66.6147 72.2389H77.7451L84.7007 65.2832V27.7173H76.3645L76.2849 64.7257ZM37.0199 55.3939H38.3075L37.6637 51.9626L37.0199 55.3939ZM92.6387 35.2371H100.988V72.2389H109.338V35.2371H117.674V27.724H92.6387V35.2371Z" fill="#0A0C24"/>
<mask id="mask1_200_1090" style="mask-type:luminance" maskUnits="userSpaceOnUse" x="0" y="0" width="141" height="100">
<path d="M0 69.979C0 86.5475 13.4315 99.979 30 99.979H110.986C127.555 99.979 140.986 86.5475 140.986 69.979V0.000457764H0V69.979Z" fill="white"/>
</mask>
<g mask="url(#mask1_200_1090)">
<path d="M120.101 35.2318C120.101 35.8687 119.843 36.4961 119.389 36.9457C118.935 37.3952 118.312 37.6551 117.675 37.6551H111.763V72.2332C111.763 72.8724 111.505 73.4975 111.049 73.9471C110.592 74.3966 109.972 74.6566 109.335 74.6566H100.985C100.346 74.6566 99.721 74.4224 99.2715 73.9471C98.8219 73.4718 98.5597 72.87 98.5597 72.2332V37.6574H92.6359C91.9967 37.6574 91.3715 37.3953 90.922 36.948C90.4724 36.5008 90.2102 35.871 90.2102 35.2318V27.7205C90.2126 27.0779 90.469 26.4623 90.9234 26.0079C91.3778 25.5536 91.9933 25.2972 92.6359 25.2948H117.673C118.315 25.2959 118.931 25.5509 119.387 26.0042C119.839 26.4561 120.098 27.0813 120.098 27.7205L120.101 35.2318ZM87.0539 65.2769C87.0529 65.9183 86.7988 66.5333 86.3469 66.9884L79.3928 73.9471C79.1682 74.1737 78.9009 74.3536 78.6063 74.4762C78.3117 74.5988 77.9957 74.6617 77.6766 74.6613L66.5408 74.6566C65.8969 74.6566 65.2881 74.4037 64.8269 73.9471L57.8775 66.9884C57.6519 66.7642 57.4728 66.4975 57.3506 66.2038C57.2285 65.91 57.1656 65.595 57.1657 65.2769V27.7205C57.1657 27.0836 57.4233 26.4561 57.8775 26.0042C58.3338 25.5512 58.9508 25.297 59.5938 25.2971H67.9339C68.5761 25.2996 69.1913 25.5556 69.6456 26.0095C70.0999 26.4634 70.3566 27.0783 70.3596 27.7205V62.3032H73.8601V27.7205C73.8601 27.0836 74.1176 26.4561 74.5719 26.0042C75.0276 25.5517 75.6436 25.2976 76.2858 25.2971H84.6306C85.2724 25.3002 85.887 25.5565 86.3408 26.0103C86.7946 26.4641 87.0509 27.0787 87.0539 27.7205V65.2769ZM54.2507 73.7481C53.7894 74.3241 53.0917 74.6846 52.3588 74.6846L44.007 74.6823C42.8409 74.6823 41.8458 73.8582 41.6257 72.7156L40.5557 67.1781H34.7724L33.7047 72.7156C33.4846 73.8629 32.4872 74.6823 31.3212 74.6823H23.3041C22.9404 74.6816 22.5815 74.5994 22.2537 74.4418C21.9259 74.2842 21.6376 74.0552 21.4099 73.7715C20.9487 73.1932 20.7778 72.4416 20.9417 71.7251L30.9629 27.2147C31.2111 26.1026 32.1922 25.3182 33.3278 25.3182H42.3422C43.4731 25.3182 44.4542 26.1002 44.7071 27.2147L54.7283 71.7251C54.8072 72.0799 54.8057 72.4478 54.7238 72.802C54.642 73.1561 54.4819 73.4873 54.2554 73.7715M0.00327595 70.0038C0.00405154 86.5718 13.4353 100.002 30.0033 100.002H110.989C127.557 100.002 140.989 86.571 140.989 70.0024V30.0239C140.989 13.4553 127.557 0.0238249 110.989 0.0238249H30.0014C13.4323 0.0238249 0.000628802 13.4561 0.00140445 30.0252L0.00327595 70.0038Z" fill="#0A0C24"/>
</g>
</svg>
