<svg width="141" height="100" viewBox="0 0 141 100" fill="none" xmlns="http://www.w3.org/2000/svg">
<rect width="141" height="100" rx="30" fill="#0A0C24"/>
<path d="M29.3995 56.2974C29.3995 61.0937 25.4989 64.9944 20.7026 64.9944C15.9063 64.9944 12.0056 61.0937 12.0056 56.2974C12.0056 55.2384 12.8646 54.3795 13.9236 54.3795C14.9825 54.3795 15.8415 55.2384 15.8415 56.2974C15.8415 58.9786 18.0242 61.1613 20.7054 61.1613C23.3866 61.1613 25.5693 58.9786 25.5693 56.2974C25.5693 55.2384 26.4283 54.3795 27.4872 54.3795C28.5462 54.3795 29.3995 55.2384 29.3995 56.2974ZM27.4816 35.0056C26.4226 35.0056 25.5636 35.8646 25.5636 36.9236V43.2661C25.5636 45.9472 23.381 48.1299 20.6998 48.1299C18.0186 48.1299 15.8359 45.9472 15.8359 43.2661V36.9236C15.8359 35.8646 14.9769 35.0056 13.9179 35.0056C12.859 35.0056 12 35.8646 12 36.9236V43.2661C12 48.0623 15.9007 51.963 20.697 51.963C25.4932 51.963 29.3939 48.0623 29.3939 43.2661V36.9236C29.3995 35.8646 28.5405 35.0056 27.4816 35.0056ZM89.929 43.4604C89.929 38.7993 86.0283 35.0056 81.2321 35.0056H74.453C73.3941 35.0056 72.5351 35.8646 72.5351 36.9236C72.5351 37.9825 73.3941 38.8415 74.453 38.8415H81.2321C83.9132 38.8415 86.0959 40.9144 86.0959 43.4632C86.0959 46.012 83.9132 48.0849 81.2321 48.0849H74.453C73.3941 48.0849 72.5351 48.9439 72.5351 50.0028C72.5351 51.0618 73.3941 51.9208 74.453 51.9208H81.2321C83.9132 51.9208 86.0959 53.9936 86.0959 56.5424C86.0959 59.0912 83.9132 61.1641 81.2321 61.1641H74.453C73.3941 61.1641 72.5351 62.0231 72.5351 63.0821C72.5351 64.141 73.3941 65 74.453 65H81.2321C86.0283 65 89.929 61.2063 89.929 56.5452C89.929 52.6877 89.929 47.3179 89.929 43.4604ZM49.5732 43.7026V56.2974C49.5732 61.0937 45.6725 64.9944 40.8763 64.9944C36.08 64.9944 32.1793 61.0937 32.1793 56.2974V43.7026C32.1793 38.9063 36.08 35.0056 40.8763 35.0056C45.6697 35.0056 49.5732 38.9063 49.5732 43.7026ZM45.7373 43.7026C45.7373 41.0214 43.5546 38.8387 40.8735 38.8387C38.1923 38.8387 36.0096 41.0214 36.0096 43.7026V56.2974C36.0096 58.9786 38.1923 61.1613 40.8735 61.1613C43.5546 61.1613 45.7373 58.9786 45.7373 56.2974V43.7026ZM69.7441 43.7026V56.2974C69.7441 61.0937 65.8434 64.9944 61.0471 64.9944C56.2508 64.9944 52.3502 61.0937 52.3502 56.2974V43.7026C52.3502 38.9063 56.2508 35.0056 61.0471 35.0056C65.8434 35.0056 69.7441 38.9063 69.7441 43.7026ZM65.911 43.7026C65.911 41.0214 63.7283 38.8387 61.0471 38.8387C58.3659 38.8387 56.1832 41.0214 56.1832 43.7026V56.2974C56.1832 58.9786 58.3659 61.1613 61.0471 61.1613C63.7283 61.1613 65.911 58.9786 65.911 56.2974V43.7026ZM101.406 38.8387H108.185C109.244 38.8387 110.103 37.9797 110.103 36.9208C110.103 35.8618 109.244 35.0028 108.185 35.0028H101.406C96.6094 35.0028 92.7088 38.7965 92.7088 43.4576C92.7088 47.3125 92.7088 52.6819 92.7088 56.5368C92.7088 61.1979 96.6094 64.9915 101.406 64.9915H108.185C109.244 64.9915 110.103 64.1325 110.103 63.0736C110.103 62.0146 109.244 61.1556 108.185 61.1556H101.406C98.7245 61.1556 96.5419 59.0828 96.5419 56.534C96.5419 53.9852 98.7245 51.9123 101.406 51.9123H108.185C109.244 51.9123 110.103 51.0533 110.103 49.9944C110.103 48.9354 109.244 48.0764 108.185 48.0764H101.406C98.7245 48.0764 96.5419 46.0036 96.5419 43.4548C96.5419 40.9116 98.7245 38.8387 101.406 38.8387ZM121.579 51.9151H128.358C129.417 51.9151 130.276 51.0561 130.276 49.9972C130.276 48.9382 129.417 48.0792 128.358 48.0792H121.579C118.898 48.0792 116.716 46.0064 116.716 43.4576C116.716 40.9088 118.898 38.8359 121.579 38.8359H128.358C129.417 38.8359 130.276 37.9769 130.276 36.9179C130.276 35.859 129.417 35 128.358 35H121.579C116.783 35 112.882 38.7937 112.882 43.4548C112.882 47.3097 112.882 52.6791 112.882 56.534C112.882 61.1951 116.783 64.9887 121.579 64.9887H128.358C129.417 64.9887 130.276 64.1297 130.276 63.0708C130.276 62.0118 129.417 61.1528 128.358 61.1528H121.579C118.898 61.1528 116.716 59.08 116.716 56.5312C116.716 53.9824 118.898 51.9151 121.579 51.9151Z" fill="white"/>
</svg>
